<svg width="279" height="87" viewBox="0 0 279 87" fill="none" xmlns="http://www.w3.org/2000/svg">
<g clip-path="url(#clip0_102_3101)">
<path d="M141.22 71.923V75.0194H145.26V76.1038H141.22V79.8796H140.034V70.8386H145.521V71.923H141.22Z" fill="#1D1D1B"/>
<path d="M146.564 76.8485C146.564 74.9802 147.893 73.6606 149.678 73.6606C151.464 73.6606 152.793 74.9802 152.793 76.8485C152.793 78.7168 151.464 80.0364 149.678 80.0364C147.893 80.0364 146.564 78.7168 146.564 76.8485ZM151.646 76.8485C151.646 75.5159 150.825 74.6405 149.678 74.6405C148.532 74.6405 147.724 75.5159 147.724 76.8485C147.724 78.1811 148.545 79.0565 149.678 79.0565C150.812 79.0565 151.646 78.1811 151.646 76.8485Z" fill="#1D1D1B"/>
<path d="M159.466 73.8174V79.8926H158.449L158.371 79.0826H158.332C157.954 79.6836 157.211 80.0494 156.403 80.0494C155.152 80.0494 154.253 79.2002 154.253 77.6585V73.8174H155.387V77.2143C155.387 78.56 155.869 79.0303 156.716 79.0303C157.68 79.0303 158.332 78.4032 158.332 77.1228V73.8174H159.466Z" fill="#1D1D1B"/>
<path d="M166.66 76.0515V79.8927H165.526V76.4958C165.526 75.1501 165.044 74.6797 164.158 74.6797C163.154 74.6797 162.49 75.3068 162.49 76.5872V79.8927H161.356V73.8174H162.372L162.45 74.6275H162.49C162.881 74.0265 163.597 73.6606 164.47 73.6606C165.8 73.6606 166.66 74.5229 166.66 76.0515Z" fill="#1D1D1B"/>
<path d="M174.206 70.8386V79.8796H173.189L173.111 79.0696H173.072C172.72 79.6314 171.925 80.0364 171.026 80.0364C169.371 80.0364 168.119 78.7168 168.119 76.8485C168.119 74.9802 169.384 73.6607 171.026 73.6607C171.86 73.6607 172.681 74.0265 173.033 74.6144H173.072V70.8386H174.206ZM173.124 76.8485C173.124 75.4767 172.381 74.6405 171.208 74.6405C170.035 74.6405 169.292 75.4767 169.292 76.8485C169.292 78.2204 170.074 79.0565 171.208 79.0565C172.342 79.0565 173.124 78.2204 173.124 76.8485Z" fill="#1D1D1B"/>
<path d="M181.66 77.1229H176.864C176.956 78.4032 177.764 79.0565 178.845 79.0565C179.601 79.0565 180.227 78.7168 180.54 78.1027H181.608C181.282 79.3047 180.175 80.0364 178.819 80.0364C177.008 80.0364 175.718 78.756 175.718 76.8877C175.718 75.0194 177.06 73.6606 178.832 73.6606C180.513 73.6606 181.712 74.8365 181.712 76.6264C181.712 76.8093 181.699 76.953 181.673 77.1229H181.66ZM176.917 76.2345H180.553C180.409 75.137 179.758 74.6013 178.832 74.6013C177.907 74.6013 177.125 75.1892 176.93 76.2345H176.917Z" fill="#1D1D1B"/>
<path d="M188.893 70.8386V79.8796H187.877L187.799 79.0696H187.759C187.408 79.6314 186.613 80.0364 185.713 80.0364C184.058 80.0364 182.807 78.7168 182.807 76.8485C182.807 74.9802 184.071 73.6607 185.713 73.6607C186.547 73.6607 187.368 74.0265 187.72 74.6144H187.759V70.8386H188.893ZM187.812 76.8485C187.812 75.4767 187.069 74.6405 185.896 74.6405C184.723 74.6405 183.98 75.4767 183.98 76.8485C183.98 78.2204 184.762 79.0565 185.896 79.0565C187.03 79.0565 187.812 78.2204 187.812 76.8485Z" fill="#1D1D1B"/>
<path d="M199.841 76.8485C199.841 78.7299 198.589 80.0364 196.934 80.0364C196.035 80.0364 195.24 79.6314 194.888 79.0696H194.849L194.771 79.8796H193.754V70.8386H194.888V74.6144H194.927C195.292 74.0265 196.1 73.6607 196.934 73.6607C198.576 73.6607 199.841 74.9802 199.841 76.8485ZM198.681 76.8485C198.681 75.4767 197.899 74.6405 196.765 74.6405C195.631 74.6405 194.849 75.4767 194.849 76.8485C194.849 78.2204 195.592 79.0565 196.765 79.0565C197.938 79.0565 198.681 78.2204 198.681 76.8485Z" fill="#1D1D1B"/>
<path d="M206.526 73.8174L202.851 82.78H201.704L202.89 79.8926L200.401 73.8174H201.6L203.438 78.5339H203.477L205.34 73.8174H206.513H206.526Z" fill="#1D1D1B"/>
<path d="M214.62 75.2024H218.49V79.8797H217.552L217.408 78.534H217.369C216.783 79.4877 215.649 80.0364 214.346 80.0364C211.896 80.0364 210.019 78.1551 210.019 75.3722C210.019 72.5894 211.909 70.6819 214.502 70.6819C216.561 70.6819 218.164 71.8708 218.49 73.8044H217.252C217.004 72.5241 215.962 71.7532 214.528 71.7532C212.613 71.7532 211.231 73.1381 211.231 75.3592C211.231 77.5802 212.613 78.9651 214.463 78.9651C216.04 78.9651 217.226 77.9591 217.422 76.2607H214.633V75.2024H214.62Z" fill="#1D1D1B"/>
<path d="M220.341 79.1611C220.341 78.6908 220.693 78.3511 221.149 78.3511C221.605 78.3511 221.957 78.7038 221.957 79.1611C221.957 79.6184 221.605 79.9711 221.149 79.9711C220.693 79.9711 220.341 79.6184 220.341 79.1611Z" fill="#1D1D1B"/>
<path d="M231.731 77.6194H227.821L227.013 79.8796H225.814L229.138 70.8386H230.415L233.738 79.8796H232.539L231.731 77.6194ZM231.366 76.5872L229.789 72.2104H229.75L228.173 76.5872H231.353H231.366Z" fill="#1D1D1B"/>
<path d="M234.833 70.8386H235.967V79.8796H234.833V70.8386Z" fill="#1D1D1B"/>
<path d="M241.075 79.0173V79.9449C240.88 79.9972 240.606 80.0364 240.267 80.0364C238.86 80.0364 238.182 79.4093 238.182 77.7631V74.7712H237.074V73.8044H238.182V72.2627H239.316V73.8044H241.023V74.7712H239.316V77.7631C239.316 78.7821 239.655 79.0696 240.502 79.0696C240.684 79.0696 240.893 79.0565 241.075 79.0173Z" fill="#1D1D1B"/>
<path d="M241.936 78.0505H243.069C243.161 78.7429 243.682 79.1218 244.464 79.1218C245.246 79.1218 245.754 78.7299 245.754 78.1942C245.754 77.7631 245.441 77.4887 244.529 77.3189L243.799 77.1751C242.6 76.94 242.04 76.4043 242.04 75.5159C242.04 74.4445 242.939 73.6606 244.425 73.6606C245.793 73.6606 246.653 74.327 246.758 75.4767H245.624C245.559 74.9018 245.115 74.5752 244.36 74.5752C243.604 74.5752 243.135 74.928 243.135 75.4506C243.135 75.8294 243.356 76.0515 244.347 76.2475L245.076 76.3912C246.301 76.6264 246.849 77.1621 246.849 78.1027C246.849 79.2394 245.963 80.0364 244.451 80.0364C242.939 80.0364 242.027 79.2786 241.936 78.0505Z" fill="#1D1D1B"/>
<path d="M253.534 76.0517V79.8928H252.401V76.4959C252.401 75.1502 251.918 74.6799 251.032 74.6799C250.029 74.6799 249.364 75.307 249.364 76.5874V79.8928H248.23V70.8518H249.364V74.6407H249.403C249.807 74.0397 250.472 73.6739 251.345 73.6739C252.674 73.6739 253.534 74.5361 253.534 76.0648V76.0517Z" fill="#1D1D1B"/>
<path d="M260.546 73.8174V79.8926H259.53L259.451 79.0826H259.412C259.021 79.6836 258.291 80.0494 257.47 80.0494C256.219 80.0494 255.32 79.2002 255.32 77.6585V73.8174H256.454V77.2143C256.454 78.56 256.936 79.0303 257.783 79.0303C258.748 79.0303 259.412 78.4032 259.412 77.1228V73.8174H260.546Z" fill="#1D1D1B"/>
<path d="M262.436 70.8386H263.57V79.8796H262.436V70.8386Z" fill="#1D1D1B"/>
<path d="M265.459 70.8386H266.593V79.8796H265.459V70.8386Z" fill="#1D1D1B"/>
<path d="M274.048 77.1229H269.252C269.343 78.4032 270.151 79.0565 271.233 79.0565C271.989 79.0565 272.614 78.7168 272.914 78.1027H273.982C273.657 79.3047 272.549 80.0364 271.194 80.0364C269.382 80.0364 268.092 78.756 268.092 76.8877C268.092 75.0194 269.434 73.6606 271.207 73.6606C272.888 73.6606 274.087 74.8365 274.087 76.6264C274.087 76.8093 274.074 76.953 274.048 77.1229ZM269.304 76.2345H272.94C272.797 75.137 272.132 74.6013 271.207 74.6013C270.281 74.6013 269.499 75.1892 269.304 76.2345Z" fill="#1D1D1B"/>
<path d="M278.987 73.8044V74.7842C278.805 74.7581 278.622 74.745 278.466 74.745C277.345 74.745 276.72 75.3852 276.72 76.7048V79.8796H275.586V73.8044H276.589L276.68 74.732H276.72C277.006 74.0918 277.645 73.6868 278.401 73.6868C278.635 73.6868 278.831 73.726 279 73.7913L278.987 73.8044Z" fill="#1D1D1B"/>
<path d="M139.826 25.5029V61.7976H132.371V40.2795H132.163L122.284 61.7976H117.736L107.857 40.2795H107.701V61.7976H100.207V25.5029H108.326L119.912 50.2873H120.121L131.707 25.5029H139.826Z" fill="#1D1D1B"/>
<path d="M167.533 54.6379H154.292L151.92 61.7976H143.957L156.521 25.5029H165.318L177.881 61.7976H169.866L167.533 54.6379ZM165.357 48.1054L161.017 34.8314H160.808L156.416 48.1054H165.37H165.357Z" fill="#1D1D1B"/>
<path d="M202.291 32.6494H192.36V61.7975H184.71V32.6494H174.831V25.4897H202.304V32.6494H202.291Z" fill="#1D1D1B"/>
<path d="M217.825 50.8099H214.255V61.7976H206.604V25.5029H218.555C228.121 25.5029 233.66 30.4284 233.66 38.1499C233.66 43.7025 230.806 47.7919 225.749 49.6602L233.973 61.7976H225.019L217.825 50.8099ZM214.255 43.7548H218.907C223.299 43.7548 225.788 41.7297 225.788 38.1499C225.788 34.5701 223.312 32.5972 218.907 32.5972H214.255V43.7417V43.7548Z" fill="#1D1D1B"/>
<path d="M239.955 25.5029H247.605V61.7976H239.955V25.5029Z" fill="#1D1D1B"/>
<path d="M279 54.6378V61.7975H253.6V55.7745L268.965 32.6494H254.017V25.4897H278.583V31.4997L263.218 54.6248H279V54.6378Z" fill="#1D1D1B"/>
<path d="M0 87H22.5984L28.5803 76.6003H71.6267L77.6086 87H100.207L50.11 0L0 87ZM30.1051 50.9144C30.1051 39.8353 39.0584 30.8596 50.11 30.8596C61.1616 30.8596 70.1149 39.8353 70.1149 50.9144C70.1149 61.9935 61.1616 70.9692 50.11 70.9692C39.0584 70.9692 30.1051 61.9805 30.1051 50.9144Z" fill="#1D1D1B"/>
<path d="M41.2741 41.7167C40.0881 41.2855 38.9413 40.7629 37.8335 40.175C40.1793 37.4836 43.3723 35.5761 47.0084 34.8706C44.5843 36.7128 42.6425 39.0645 41.2871 41.7297L41.2741 41.7167Z" fill="#1D1D1B"/>
<path d="M59.5977 43.1538C60.8879 42.6834 62.152 42.1086 63.3771 41.4292C65.1495 43.9116 66.2442 46.9034 66.4006 50.1305H61.1225C61.0312 47.6873 60.5099 45.3356 59.5977 43.1538Z" fill="#1D1D1B"/>
<path d="M58.9329 60.1121C60.1189 60.5432 61.2658 61.0527 62.3735 61.6537C60.0277 64.3451 56.8347 66.2526 53.2117 66.9581C55.6357 65.116 57.5776 62.7643 58.9329 60.1121Z" fill="#1D1D1B"/>
<path d="M61.1225 51.6982H66.4006C66.2442 54.9384 65.1495 57.9172 63.3771 60.3995C62.1651 59.7202 60.9009 59.1453 59.5977 58.675C60.4969 56.4931 61.0312 54.1414 61.1225 51.6982Z" fill="#1D1D1B"/>
<path d="M40.6614 50.1304C40.7526 47.8701 41.2478 45.6752 42.108 43.6501C44.4408 44.3557 46.8648 44.7607 49.328 44.826V50.1304H40.6614Z" fill="#1D1D1B"/>
<path d="M49.3281 35.145V43.2584C47.1126 43.1931 44.9101 42.8403 42.7988 42.2132C44.2976 39.365 46.5392 36.9219 49.3281 35.145Z" fill="#1D1D1B"/>
<path d="M59.5585 50.1304H50.8918V44.826C53.355 44.7607 55.779 44.3557 58.1249 43.6501C58.985 45.6752 59.4803 47.8571 59.5715 50.1304H59.5585Z" fill="#1D1D1B"/>
<path d="M53.2117 34.8706C56.8347 35.5761 60.0407 37.4836 62.3735 40.175C61.2658 40.776 60.1189 41.2855 58.9329 41.7167C57.5776 39.0514 55.6227 36.7128 53.2117 34.8706Z" fill="#1D1D1B"/>
<path d="M58.1119 58.1785C55.7791 57.473 53.3421 57.068 50.8789 57.0026V51.6982H59.5455C59.4543 53.9585 58.9591 56.1534 58.0989 58.1785H58.1119Z" fill="#1D1D1B"/>
<path d="M50.8789 66.6839V58.5706C53.1075 58.6359 55.2969 58.9886 57.4212 59.6158C55.9225 62.4639 53.6809 64.9202 50.8789 66.6839Z" fill="#1D1D1B"/>
<path d="M42.108 58.1785C41.2609 56.1534 40.7656 53.9716 40.6614 51.6982H49.328V57.0026C46.8779 57.068 44.4408 57.473 42.108 58.1785Z" fill="#1D1D1B"/>
<path d="M57.4342 42.2132C55.3099 42.8403 53.1204 43.1931 50.8918 43.2584V35.145C53.6938 36.9088 55.9354 39.365 57.4342 42.2132Z" fill="#1D1D1B"/>
<path d="M42.7856 59.6158C44.8969 59.0017 47.0994 58.6359 49.3149 58.5706V66.6839C46.5129 64.9202 44.2844 62.4639 42.7856 59.6158Z" fill="#1D1D1B"/>
<path d="M39.0975 50.1305H33.8193C33.9757 46.8904 35.0705 43.9116 36.8429 41.4292C38.0549 42.0955 39.3191 42.6834 40.6223 43.1538C39.7231 45.3356 39.1887 47.7004 39.0975 50.1305Z" fill="#1D1D1B"/>
<path d="M47.0084 66.9583C43.3723 66.2527 40.1793 64.3453 37.8335 61.6539C38.9413 61.0529 40.0881 60.5433 41.2741 60.0991C42.6295 62.7644 44.5843 65.103 46.9954 66.9583H47.0084Z" fill="#1D1D1B"/>
<path d="M40.6223 58.675C39.3191 59.1584 38.0549 59.7202 36.8429 60.3995C35.0705 57.9172 33.9757 54.9384 33.8193 51.6982H39.0975C39.1887 54.1414 39.71 56.4931 40.6223 58.675Z" fill="#1D1D1B"/>
</g>
<defs>
<clipPath id="clip0_102_3101">
<rect width="279" height="87" fill="white"/>
</clipPath>
</defs>
</svg>
